<svg xmlns="http://www.w3.org/2000/svg" width="36" height="36" fill="none"><path fill="#fff" d="M4 26.519c0 .568.205 1.022.615 1.363.41.34.978.511 1.706.511h6.485a5.918 5.918 0 0 0 .8 2.773 5.893 5.893 0 0 0 2.012 2.044c.84.527 1.798.79 2.874.79 1.086 0 2.05-.258 2.89-.774a5.724 5.724 0 0 0 1.997-2.06c.502-.847.774-1.771.815-2.773h6.485c.728 0 1.296-.17 1.706-.511.41-.34.615-.795.615-1.363 0-.516-.149-1.017-.446-1.502a8.221 8.221 0 0 0-1.122-1.425l-1.321-1.394c-.338-.352-.605-.811-.8-1.379a10.885 10.885 0 0 1-.414-1.812c-.092-.64-.16-1.26-.2-1.859-.03-2.034-.246-3.82-.646-5.359-.389-1.549-.998-2.84-1.828-3.872-.83-1.033-1.927-1.797-3.29-2.293a5.022 5.022 0 0 0-1.567-2.57C20.587 2.35 19.63 2 18.492 2c-1.127 0-2.085.351-2.874 1.053a5.065 5.065 0 0 0-1.552 2.571c-1.362.496-2.464 1.26-3.304 2.293-.83 1.032-1.44 2.323-1.829 3.872-.39 1.539-.6 3.325-.63 5.36a25.045 25.045 0 0 1-.2 1.858 9.957 9.957 0 0 1-.43 1.812c-.184.568-.446 1.027-.784 1.379-.44.464-.886.929-1.337 1.393-.44.465-.81.94-1.106 1.425-.297.486-.446.987-.446 1.503Zm2.981-.465v-.186c.093-.144.246-.335.462-.573.215-.248.455-.516.722-.805.276-.29.548-.584.814-.883.277-.31.518-.666.723-1.069.205-.413.379-.878.522-1.394.144-.516.256-1.09.338-1.719.082-.63.144-1.322.185-2.076.04-2.25.271-4.037.691-5.359.42-1.321.979-2.302 1.675-2.943A5.804 5.804 0 0 1 15.496 7.7a.865.865 0 0 0 .445-.217.728.728 0 0 0 .17-.465c.03-.805.255-1.46.675-1.967.43-.516 1-.774 1.706-.774.717 0 1.286.258 1.706.774.43.506.661 1.162.692 1.967 0 .197.051.351.154.465a.953.953 0 0 0 .445.217c.881.248 1.67.697 2.367 1.347.707.64 1.27 1.622 1.69 2.943.43 1.322.666 3.108.707 5.36.031.753.087 1.445.17 2.075.092.63.204 1.203.338 1.72.143.515.317.98.522 1.393.205.403.446.76.722 1.069l.815.883c.276.289.517.557.722.805.215.238.369.429.461.573v.186H6.981Zm8.223 2.339h6.593c-.062 1.053-.395 1.884-1 2.494-.604.62-1.372.93-2.305.93-.922 0-1.69-.31-2.305-.93-.604-.61-.932-1.44-.984-2.494Z"/></svg>