<svg xmlns="http://www.w3.org/2000/svg" width="36" height="36" fill="none"><path fill="#fff" d="M5.835 31h24.792c1.386 0 2.458-.392 3.218-1.177.77-.775 1.155-1.942 1.155-3.5V9.662c0-1.55-.406-2.711-1.217-3.486C32.983 5.392 31.777 5 30.165 5H5.373C3.987 5 2.91 5.392 2.14 6.177 1.38 6.952 1 8.114 1 9.663v16.66c0 1.558.4 2.725 1.201 3.5C3.012 30.608 4.223 31 5.835 31Zm-.092-2.309c-.77 0-1.36-.196-1.771-.588-.41-.403-.616-.996-.616-1.78V9.662c0-.775.205-1.358.616-1.75.41-.403 1-.604 1.77-.604h24.515c.76 0 1.345.201 1.756.603.42.393.631.981.631 1.766v16.66c0 .774-.21 1.362-.631 1.765-.41.392-.996.588-1.756.588H5.743Zm12.288-6.67c.544 0 1.078-.115 1.601-.347.524-.231 1.058-.608 1.602-1.131L33.737 8.5l-1.601-1.585-12.242 11.846c-.339.322-.662.558-.97.71a1.96 1.96 0 0 1-.893.226c-.308 0-.616-.076-.924-.227a4.528 4.528 0 0 1-.94-.709L3.865 6.856 2.247 8.441l12.58 12.102c.535.523 1.063.9 1.587 1.131a4.033 4.033 0 0 0 1.617.348Zm13.95 7.002 1.602-1.584-9.962-9.643-1.602 1.57 9.963 9.657Zm-29.518-1.57 1.601 1.585 9.979-9.672-1.617-1.57-9.963 9.658Z"/></svg>