<svg xmlns="http://www.w3.org/2000/svg" width="36" height="36" fill="none"><path fill="#fff" d="M10.575 34h15.85c1.417 0 2.503-.371 3.257-1.114.764-.744 1.146-1.838 1.146-3.283V20.23h.106c.663-.142 1.171-.473 1.523-.992.362-.52.543-1.166.543-1.94v-4.015c0-.926-.246-1.664-.739-2.213-.493-.55-1.201-.825-2.126-.825h-3.047c.403-.397.714-.865.935-1.404.222-.55.332-1.14.332-1.771 0-.988-.236-1.863-.709-2.626a4.851 4.851 0 0 0-1.885-1.787C24.977 2.22 24.097 2 23.122 2c-1.055 0-1.995.28-2.82.84-.824.56-1.427 1.353-1.81 2.381-.382-1.028-.985-1.822-1.81-2.381-.814-.56-1.754-.84-2.82-.84-.975 0-1.86.219-2.653.656a4.992 4.992 0 0 0-1.886 1.787c-.462.763-.693 1.638-.693 2.626 0 .63.11 1.221.332 1.77a4.37 4.37 0 0 0 .95 1.405H6.865c-.884 0-1.583.275-2.096.825-.513.55-.769 1.287-.769 2.213v4.016c0 .773.176 1.42.528 1.939.352.519.86.85 1.523.992h.106v9.374c0 1.445.377 2.54 1.13 3.282.765.744 1.86 1.115 3.288 1.115Zm6.575-2.29h-6.605c-.623 0-1.106-.173-1.448-.52-.342-.345-.512-.834-.512-1.465v-9.39h8.565V31.71Zm2.685 0V20.336H28.4v9.39c0 .63-.17 1.119-.512 1.465-.332.346-.815.519-1.448.519h-6.605ZM17.15 18.03H7.484c-.382 0-.654-.08-.815-.244-.16-.173-.241-.453-.241-.84v-3.328c0-.386.08-.661.241-.824.161-.163.433-.244.815-.244h9.666v5.48Zm2.685 0v-5.48h9.697c.371 0 .638.081.799.244.16.163.241.438.241.824v3.329c0 .386-.08.666-.241.84-.161.162-.428.244-.8.244h-9.696Zm-2.58-7.786h-2.352c-1.186 0-2.111-.295-2.775-.885-.653-.59-.98-1.308-.98-2.153s.272-1.496.815-1.954c.543-.468 1.226-.702 2.05-.702a3.05 3.05 0 0 1 2.293.977c.633.64.95 1.526.95 2.656v2.061Zm2.474 0v-2.06c0-1.13.317-2.016.95-2.657.634-.652 1.398-.977 2.292-.977.835 0 1.518.234 2.051.702.543.458.815 1.11.815 1.954 0 .845-.332 1.562-.996 2.153-.653.59-1.573.885-2.76.885H19.73Z"/></svg>