<svg xmlns="http://www.w3.org/2000/svg" width="36" height="36" fill="none"><path fill="#fff" d="M9.303 17.148c1.645 0 2.937-.623 3.877-1.868.94-1.255 1.41-2.955 1.41-5.101s-.47-3.837-1.41-5.072c-.94-1.234-2.232-1.852-3.877-1.852-1.645 0-2.943.623-3.893 1.868C4.47 6.358 4 8.043 4 10.179c0 2.146.47 3.846 1.41 5.101.94 1.245 2.238 1.868 3.893 1.868Zm0-2.126c-.89 0-1.584-.42-2.085-1.26-.5-.85-.75-2.045-.75-3.583 0-1.509.25-2.688.75-3.538.501-.85 1.196-1.275 2.085-1.275.878 0 1.568.425 2.069 1.275.5.84.75 2.02.75 3.538 0 1.538-.25 2.733-.75 3.583-.49.84-1.18 1.26-2.07 1.26Zm17.41 16.732c1.645 0 2.937-.627 3.877-1.883.94-1.245 1.41-2.935 1.41-5.07 0-2.147-.47-3.837-1.41-5.072-.94-1.245-2.232-1.868-3.877-1.868-1.645 0-2.943.623-3.893 1.868-.94 1.235-1.41 2.925-1.41 5.071s.47 3.842 1.41 5.087c.94 1.245 2.238 1.867 3.893 1.867Zm0-2.11c-.89 0-1.584-.425-2.085-1.276-.5-.85-.75-2.04-.75-3.568 0-1.518.25-2.697.75-3.538.501-.85 1.196-1.275 2.085-1.275.878 0 1.568.42 2.069 1.26.5.84.75 2.025.75 3.553 0 1.529-.25 2.718-.75 3.568-.49.85-1.18 1.276-2.07 1.276Zm-18.514 2.17c.286.163.608.218.966.168.368-.05.674-.248.92-.592L28.091 5.016c.266-.374.342-.734.23-1.078-.102-.354-.296-.617-.582-.79-.266-.14-.573-.181-.92-.12-.337.06-.639.278-.904.652L7.908 29.978c-.276.384-.368.744-.276 1.078.092.334.281.587.567.759Z"/></svg>