<svg xmlns="http://www.w3.org/2000/svg" width="36" height="36" fill="none"><path fill="#fff" d="M20.089 35a.672.672 0 0 0 .5-.2.897.897 0 0 0 .256-.506c.212-1.677.45-3.094.712-4.25.272-1.156.625-2.107 1.06-2.854a5.08 5.08 0 0 1 1.755-1.78c.726-.45 1.65-.803 2.77-1.059 1.12-.256 2.502-.476 4.147-.66a.771.771 0 0 0 .514-.245.745.745 0 0 0 .197-.522.725.725 0 0 0-.197-.506.771.771 0 0 0-.514-.246c-1.645-.184-3.027-.404-4.147-.66-1.12-.255-2.044-.608-2.77-1.058a5.21 5.21 0 0 1-1.756-1.796c-.434-.746-.787-1.693-1.06-2.838-.262-1.156-.499-2.578-.71-4.266a.886.886 0 0 0-.258-.49.672.672 0 0 0-.5-.2.704.704 0 0 0-.499.2.812.812 0 0 0-.242.49c-.212 1.688-.454 3.11-.727 4.266-.262 1.145-.615 2.092-1.059 2.838a5.21 5.21 0 0 1-1.756 1.796c-.726.45-1.65.803-2.77 1.058-1.12.256-2.497.476-4.131.66a.787.787 0 0 0-.53.246.725.725 0 0 0-.197.506c0 .205.066.379.197.522a.787.787 0 0 0 .53.245c1.634.215 3.007.46 4.117.737 1.12.266 2.038.619 2.754 1.059a5.121 5.121 0 0 1 1.756 1.764c.444.737.797 1.673 1.06 2.808.272 1.146.524 2.558.756 4.235.03.215.111.384.242.507.142.133.308.199.5.199ZM9.827 18.03a.468.468 0 0 0 .348-.139.595.595 0 0 0 .167-.337c.13-1.023.267-1.821.408-2.394.142-.573.358-1.002.651-1.289.303-.296.747-.522 1.332-.675a35.285 35.285 0 0 1 2.467-.552c.303-.062.454-.236.454-.522a.481.481 0 0 0-.136-.353.452.452 0 0 0-.318-.153c-1.05-.154-1.872-.302-2.467-.445-.595-.144-1.044-.364-1.347-.66-.293-.307-.51-.757-.65-1.35-.132-.594-.263-1.407-.394-2.44-.04-.328-.212-.491-.515-.491-.303 0-.474.169-.515.506-.12 1.023-.252 1.82-.393 2.394-.141.562-.363.987-.666 1.273-.303.287-.752.512-1.347.675-.595.154-1.413.333-2.452.538-.303.05-.454.22-.454.506 0 .296.172.47.515.522 1.029.174 1.836.337 2.421.49.596.154 1.04.38 1.332.676.303.286.52.72.65 1.304.142.583.273 1.386.394 2.409.04.338.212.506.515.506Zm7.325-10.557c.182 0 .293-.103.333-.307.111-.624.212-1.115.303-1.473.09-.358.222-.63.394-.814.181-.194.454-.347.817-.46.363-.112.873-.225 1.529-.337.201-.041.302-.159.302-.353 0-.184-.1-.297-.302-.338a18.595 18.595 0 0 1-1.53-.338c-.362-.112-.635-.26-.816-.444-.172-.195-.303-.471-.394-.83-.09-.357-.192-.848-.303-1.472-.04-.205-.15-.307-.333-.307-.191 0-.302.102-.332.307a28.08 28.08 0 0 1-.318 1.473c-.081.358-.212.634-.394.829-.171.184-.439.332-.802.444-.363.103-.873.215-1.529.338-.201.041-.302.154-.302.338 0 .194.1.312.302.353.656.112 1.166.225 1.529.337.363.113.63.266.802.46.182.185.313.456.394.814.09.358.196.849.318 1.473.03.204.14.307.332.307Z"/></svg>