<svg xmlns="http://www.w3.org/2000/svg" width="128" height="24" fill="none"><g fill="#fff" clip-path="url(#a)"><path d="M51.8 0h-7.798v2h7.797v22H53.8V2h7.801V0h-9.802ZM82 11H68.4V0h-1.998v24H68.4V13H82v11h2.001V0h-2v11ZM88.802 0v24H103.2v-2H90.8v-9H103.2v-2H90.8V2H103.2V0H88.802ZM24.8 0v24H39.2v-2H26.8v-9h12.401v-2H26.8V2h12.401V0H24.8ZM8.865 0 0 24h2.272l4.064-11h7.33l4.063 11h2.272L11.137 0H8.865Zm-1.79 11 2.927-7.921 2.927 7.922H7.075ZM121.294 13.16l-.206-.333A6.578 6.578 0 0 0 119.022.003h-11.021v24h2.001v-10.84h9.02l6.706 10.84H128l-6.706-10.84v-.003Zm-2.272-2h-9.02V2h9.02a4.582 4.582 0 0 1 4.581 4.58 4.582 4.582 0 0 1-4.581 4.58v-.002Z"/></g><defs><clipPath id="a"><path fill="#fff" d="M0 0h128v24H0z"/></clipPath></defs></svg>