<svg xmlns="http://www.w3.org/2000/svg" width="1920" height="1080" fill="none"><path fill="#000" d="M1122.97 524.603c0-6.95-5.61-12.58-12.52-12.58h-24.67v25.17h24.67c6.92 0 12.52-5.63 12.52-12.58v-.01ZM804.34 536.739h16l-8-21.77-8 21.77Z"/><path fill="#000" d="M0 0v1080h1920V0H0Zm833.48 572.45-11.11-30.21h-20.04l-11.11 30.21H785l24.24-65.93h6.22l24.24 65.93h-6.22Zm58.71-60.44h-33.9v24.72h33.9v5.5h-33.9v24.72h33.9v5.49h-39.38v-65.93h39.38v5.5Zm61.25 0h-21.32v60.44h-5.48v-60.44h-21.32v-5.49h48.12v5.49Zm61.25 24.72v35.71h-5.47v-30.21h-37.19v30.21h-5.46v-65.93h5.46v30.21h37.19v-30.21h5.47V536.73Zm52.5-24.72h-33.91v24.72h33.91v5.5h-33.91v24.72h33.91v5.49h-39.38v-65.93h39.38v5.5Zm61.59 60.43-18.33-29.78h-24.67v29.78h-5.46v-65.92h30.13c9.93 0 17.99 8.09 17.99 18.07 0 8-5.18 14.78-12.34 17.16l.56.92 18.34 29.77h-6.22Z"/></svg>