<svg width="350" height="67" viewBox="0 0 350 67" fill="none" xmlns="http://www.w3.org/2000/svg">
<path d="M141.639 0.530273H120.316V6.01916H141.639V66.455H147.114V6.01916H168.436V0.530273H147.114H141.639Z" fill="white"/>
<path d="M224.219 30.7424H187.027V0.530273H181.563V30.7424V36.2429V66.455H187.027V36.2429H224.219V66.455H229.694V36.2429V30.7424V0.530273H224.219V30.7424Z" fill="white"/>
<path d="M242.81 0.530273V6.01916V30.7424V36.2429V60.9661V66.455H248.285H282.19V60.9661H248.285V36.2429H282.19V30.7424H248.285V6.01916H282.19V0.530273H248.285H242.81Z" fill="white"/>
<path d="M67.8098 0.530273V6.01916V30.7424V36.2429V60.9661V66.455H73.2851H107.19V60.9661H73.2851V36.2429H107.19V30.7424H73.2851V6.01916H107.19V0.530273H73.2851H67.8098Z" fill="white"/>
<path d="M24.2389 0.530273L-0.000488281 66.455H6.21562L17.3282 36.2429H37.3656L48.4782 66.455H54.6943L30.455 0.530273H24.2389V0.530273ZM19.3424 30.7424L27.3411 8.97292L35.3399 30.7424H19.3424Z" fill="white"/>
<path d="M331.664 36.6731L331.097 35.7544C338.262 33.3705 343.437 26.5908 343.437 18.59C343.437 8.61233 335.38 0.518555 325.448 0.518555H295.317V66.4433H300.78V36.6615H325.448L343.784 66.4433H350L331.664 36.6615V36.6731ZM300.78 31.1842V6.01907H325.448C332.359 6.01907 337.973 11.6475 337.973 18.6016C337.973 25.5558 332.37 31.1842 325.448 31.1842H300.78Z" fill="white"/>
</svg>
