<svg width="36" height="36" viewBox="0 0 36 36" fill="none" xmlns="http://www.w3.org/2000/svg">
<path d="M4 26.5189C4 27.0868 4.20491 27.5411 4.61473 27.8819C5.02455 28.2227 5.59318 28.393 6.32061 28.393H12.806C12.847 29.3946 13.1134 30.3188 13.6052 31.1655C14.1072 32.0123 14.7783 32.6938 15.6184 33.2101C16.4586 33.7367 17.4165 34 18.4923 34C19.5783 34 20.5414 33.7419 21.3816 33.2256C22.2217 32.7093 22.8877 32.0226 23.3794 31.1655C23.8815 30.3188 24.153 29.3946 24.194 28.393H30.6794C31.4068 28.393 31.9754 28.2227 32.3853 27.8819C32.7951 27.5411 33 27.0868 33 26.5189C33 26.0026 32.8514 25.5018 32.5543 25.0165C32.2572 24.5311 31.8832 24.0561 31.4324 23.5915C30.9919 23.1268 30.5513 22.6621 30.1108 22.1975C29.7727 21.8464 29.5063 21.3869 29.3116 20.819C29.1272 20.251 28.9889 19.647 28.8967 19.0068C28.8045 18.3666 28.7379 17.747 28.6969 17.1481C28.6661 15.1139 28.451 13.3275 28.0514 11.789C27.6621 10.2401 27.0525 8.94934 26.2226 7.91675C25.3927 6.88416 24.2964 6.12004 22.9338 5.6244C22.6776 4.61246 22.1551 3.7554 21.3662 3.05324C20.5875 2.35108 19.6296 2 18.4923 2C17.3653 2 16.4073 2.35108 15.6184 3.05324C14.8398 3.7554 14.3224 4.61246 14.0662 5.6244C12.7036 6.12004 11.6022 6.88416 10.7621 7.91675C9.93217 8.94934 9.32256 10.2401 8.93323 11.789C8.5439 13.3275 8.33386 15.1139 8.30313 17.1481C8.26214 17.747 8.19555 18.3666 8.10334 19.0068C8.01113 19.647 7.86769 20.251 7.67303 20.819C7.48861 21.3869 7.22734 21.8464 6.88924 22.1975C6.44868 22.6621 6.003 23.1268 5.5522 23.5915C5.11164 24.0561 4.7428 24.5311 4.44568 25.0165C4.14856 25.5018 4 26.0026 4 26.5189ZM6.98145 26.0542V25.8683C7.07366 25.7238 7.22734 25.5328 7.4425 25.2953C7.65766 25.0474 7.89843 24.779 8.16481 24.4898C8.44144 24.2007 8.71295 23.9064 8.97933 23.607C9.25596 23.2972 9.49673 22.9409 9.70164 22.5382C9.90655 22.1252 10.0807 21.6605 10.2242 21.1442C10.3676 20.6279 10.4803 20.0549 10.5623 19.425C10.6442 18.7951 10.7057 18.1033 10.7467 17.3495C10.7877 15.0984 11.0182 13.312 11.4383 11.9903C11.8583 10.6686 12.4167 9.68764 13.1134 9.04743C13.8203 8.3969 14.6144 7.94773 15.4955 7.6999C15.6902 7.6586 15.8387 7.58632 15.9412 7.48306C16.0436 7.36947 16.1 7.21459 16.1102 7.01839C16.141 6.21297 16.3664 5.55728 16.7864 5.05131C17.2167 4.53501 17.7854 4.27686 18.4923 4.27686C19.2095 4.27686 19.7781 4.53501 20.1982 5.05131C20.6285 5.55728 20.859 6.21297 20.8898 7.01839C20.8898 7.21459 20.941 7.36947 21.0435 7.48306C21.1562 7.58632 21.3047 7.6586 21.4891 7.6999C22.3703 7.94773 23.1592 8.3969 23.8559 9.04743C24.5628 9.68764 25.1263 10.6686 25.5464 11.9903C25.9767 13.312 26.2123 15.0984 26.2533 17.3495C26.284 18.1033 26.3404 18.7951 26.4224 19.425C26.5146 20.0549 26.6273 20.6279 26.7605 21.1442C26.9039 21.6605 27.0781 22.1252 27.283 22.5382C27.4879 22.9409 27.7287 23.2972 28.0053 23.607C28.2819 23.9064 28.5534 24.2007 28.8198 24.4898C29.0965 24.779 29.3372 25.0474 29.5421 25.2953C29.7573 25.5328 29.911 25.7238 30.0032 25.8683V26.0542H6.98145ZM15.2035 28.393H21.7965C21.735 29.4463 21.4021 30.2775 20.7976 30.8867C20.1931 31.5063 19.4247 31.8161 18.4923 31.8161C17.5702 31.8161 16.8018 31.5063 16.1871 30.8867C15.5826 30.2775 15.2547 29.4463 15.2035 28.393Z" fill="white"/>
</svg>
