<svg width="36" height="36" viewBox="0 0 36 36" fill="none" xmlns="http://www.w3.org/2000/svg">
<path d="M9.30268 17.1478C10.9476 17.1478 12.2401 16.5253 13.1801 15.2803C14.1201 14.0251 14.59 12.3246 14.59 10.1787C14.59 8.03276 14.1201 6.34236 13.1801 5.10745C12.2401 3.87253 10.9476 3.25508 9.30268 3.25508C7.65773 3.25508 6.36015 3.8776 5.40996 5.12263C4.46999 6.35754 4 8.04289 4 10.1787C4 12.3246 4.46999 14.0251 5.40996 15.2803C6.34994 16.5253 7.64751 17.1478 9.30268 17.1478ZM9.30268 15.0222C8.41379 15.0222 7.71903 14.6021 7.21839 13.7619C6.71775 12.9117 6.46743 11.7173 6.46743 10.1787C6.46743 8.67046 6.71775 7.49123 7.21839 6.64096C7.71903 5.79069 8.41379 5.36556 9.30268 5.36556C10.1814 5.36556 10.871 5.79069 11.3716 6.64096C11.8723 7.4811 12.1226 8.66034 12.1226 10.1787C12.1226 11.7173 11.8723 12.9117 11.3716 13.7619C10.8812 14.6021 10.1916 15.0222 9.30268 15.0222ZM26.7126 31.7542C28.3576 31.7542 29.6501 31.1266 30.59 29.8714C31.53 28.6264 32 26.936 32 24.8002C32 22.6543 31.53 20.9639 30.59 19.729C29.6501 18.484 28.3576 17.8614 26.7126 17.8614C25.0677 17.8614 23.7701 18.484 22.8199 19.729C21.8799 20.9639 21.41 22.6543 21.41 24.8002C21.41 26.9461 21.8799 28.6416 22.8199 29.8866C23.7599 31.1317 25.0575 31.7542 26.7126 31.7542ZM26.7126 29.6437C25.8238 29.6437 25.129 29.2186 24.6284 28.3683C24.1277 27.518 23.8774 26.3287 23.8774 24.8002C23.8774 23.2819 24.1277 22.1026 24.6284 21.2625C25.129 20.4122 25.8238 19.9871 26.7126 19.9871C27.5913 19.9871 28.281 20.4072 28.7816 21.2473C29.2822 22.0875 29.5326 23.2718 29.5326 24.8002C29.5326 26.3287 29.2822 27.518 28.7816 28.3683C28.2912 29.2186 27.6015 29.6437 26.7126 29.6437ZM8.19923 31.8149C8.48531 31.9769 8.80715 32.0325 9.16475 31.9819C9.53257 31.9313 9.83908 31.7339 10.0843 31.3898L28.092 5.01635C28.3576 4.64182 28.4342 4.28248 28.3218 3.93833C28.2197 3.58405 28.0255 3.32087 27.7395 3.1488C27.4738 3.00709 27.1673 2.9666 26.8199 3.02733C26.4828 3.08806 26.1814 3.30569 25.9157 3.68021L7.90805 29.9777C7.63218 30.3624 7.54023 30.7217 7.63218 31.0557C7.72414 31.3898 7.91315 31.6428 8.19923 31.8149Z" fill="white"/>
</svg>
