<svg width="36" height="36" viewBox="0 0 36 36" fill="none" xmlns="http://www.w3.org/2000/svg">
<path d="M5.83514 31H30.6268C32.0127 31 33.0854 30.6077 33.8451 29.823C34.615 29.0484 35 27.8814 35 26.3221V9.6628C35 8.11356 34.5945 6.95163 33.7835 6.17702C32.9828 5.39234 31.7766 5 30.1649 5H5.37319C3.98732 5 2.90942 5.39234 2.13949 6.17702C1.37983 6.95163 1 8.11356 1 9.6628V26.3221C1 27.8814 1.40036 29.0484 2.20109 29.823C3.01208 30.6077 4.22343 31 5.83514 31ZM5.74275 28.6912C4.97283 28.6912 4.38255 28.4951 3.97192 28.1027C3.56129 27.7003 3.35598 27.1068 3.35598 26.3221V9.6628C3.35598 8.88818 3.56129 8.3047 3.97192 7.91236C4.38255 7.50996 4.97283 7.30876 5.74275 7.30876H30.2572C31.0169 7.30876 31.6021 7.50996 32.0127 7.91236C32.4336 8.3047 32.644 8.89321 32.644 9.67789V26.3372C32.644 27.1118 32.4336 27.7003 32.0127 28.1027C31.6021 28.4951 31.0169 28.6912 30.2572 28.6912H5.74275ZM18.0308 22.0215C18.5749 22.0215 19.1087 21.9058 19.6322 21.6744C20.1558 21.443 20.6896 21.0658 21.2337 20.5427L33.7373 8.50087L32.1359 6.91642L19.894 18.762C19.5553 19.084 19.2319 19.3204 18.9239 19.4713C18.6262 19.6222 18.3285 19.6976 18.0308 19.6976C17.7228 19.6976 17.4149 19.6222 17.1069 19.4713C16.8092 19.3103 16.4961 19.0739 16.1676 18.762L3.86413 6.85607L2.24728 8.44051L14.8279 20.5427C15.3617 21.0658 15.8904 21.443 16.4139 21.6744C16.9478 21.9058 17.4867 22.0215 18.0308 22.0215ZM31.9819 29.0232L33.5833 27.4388L23.6205 17.7963L22.019 19.3656L31.9819 29.0232ZM2.46286 27.4539L4.06431 29.0383L14.0426 19.3656L12.4257 17.7963L2.46286 27.4539Z" fill="white"/>
</svg>
