<svg width="36" height="36" viewBox="0 0 36 36" fill="none" xmlns="http://www.w3.org/2000/svg">
<path d="M10.5751 34H26.4249C27.8424 34 28.9282 33.6285 29.6823 32.8855C30.4464 32.1425 30.8284 31.0483 30.8284 29.6031V20.229H30.934C31.5975 20.0865 32.1052 19.7557 32.4571 19.2366C32.819 18.7176 33 18.0712 33 17.2977V13.2824C33 12.3562 32.7537 11.6183 32.261 11.0687C31.7684 10.5191 31.0596 10.2443 30.1347 10.2443H27.0884C27.4906 9.84733 27.8022 9.37913 28.0234 8.83969C28.2446 8.29008 28.3552 7.69975 28.3552 7.0687C28.3552 6.08143 28.1189 5.20611 27.6464 4.44275C27.1839 3.67939 26.5556 3.08397 25.7613 2.65649C24.9771 2.21883 24.0974 2 23.1222 2C22.0666 2 21.1265 2.2799 20.3021 2.83969C19.4777 3.39949 18.8745 4.19338 18.4925 5.22137C18.1104 4.19338 17.5072 3.39949 16.6828 2.83969C15.8684 2.2799 14.9284 2 13.8627 2C12.8875 2 12.0028 2.21883 11.2085 2.65649C10.4243 3.08397 9.79598 3.67939 9.32345 4.44275C8.86098 5.20611 8.62975 6.08143 8.62975 7.0687C8.62975 7.69975 8.74034 8.29008 8.96152 8.83969C9.19275 9.37913 9.50945 9.84733 9.9116 10.2443H6.86531C5.98059 10.2443 5.28185 10.5191 4.76911 11.0687C4.25637 11.6183 4 12.3562 4 13.2824V17.2977C4 18.0712 4.17594 18.7176 4.52782 19.2366C4.8797 19.7557 5.38742 20.0865 6.05096 20.229H6.15653V29.6031C6.15653 31.0483 6.53354 32.1425 7.28757 32.8855C8.05166 33.6285 9.14751 34 10.5751 34ZM17.1503 31.7099H10.545C9.92165 31.7099 9.43907 31.5369 9.09724 31.1908C8.75542 30.8448 8.5845 30.3562 8.5845 29.7252V20.3359H17.1503V31.7099ZM19.8346 31.7099V20.3359H28.4004V29.7252C28.4004 30.3562 28.2295 30.8448 27.8877 31.1908C27.5559 31.5369 27.0733 31.7099 26.4399 31.7099H19.8346ZM17.1503 18.0305H7.48362C7.10158 18.0305 6.83013 17.9491 6.66927 17.7863C6.50841 17.6132 6.42798 17.3333 6.42798 16.9466V13.6183C6.42798 13.2316 6.50841 12.9567 6.66927 12.7939C6.83013 12.631 7.10158 12.5496 7.48362 12.5496H17.1503V18.0305ZM19.8346 18.0305V12.5496H29.5315C29.9034 12.5496 30.1699 12.631 30.3307 12.7939C30.4916 12.9567 30.572 13.2316 30.572 13.6183V16.9466C30.572 17.3333 30.4916 17.6132 30.3307 17.7863C30.1699 17.9491 29.9034 18.0305 29.5315 18.0305H19.8346ZM17.2558 10.2443H14.9033C13.7169 10.2443 12.792 9.94911 12.1284 9.35878C11.475 8.76845 11.1482 8.05089 11.1482 7.20611C11.1482 6.36132 11.4197 5.70992 11.9626 5.25191C12.5055 4.78372 13.1891 4.54962 14.0135 4.54962C14.9184 4.54962 15.6824 4.87532 16.3058 5.52672C16.9392 6.16794 17.2558 7.05344 17.2558 8.18321V10.2443ZM19.7291 10.2443V8.18321C19.7291 7.05344 20.0458 6.16794 20.6791 5.52672C21.3125 4.87532 22.0766 4.54962 22.9714 4.54962C23.8059 4.54962 24.4895 4.78372 25.0224 5.25191C25.5653 5.70992 25.8367 6.36132 25.8367 7.20611C25.8367 8.05089 25.5049 8.76845 24.8414 9.35878C24.1879 9.94911 23.268 10.2443 22.0816 10.2443H19.7291Z" fill="white"/>
</svg>
