<svg width="36" height="36" viewBox="0 0 36 36" fill="none" xmlns="http://www.w3.org/2000/svg">
<path d="M20.0886 35C20.2905 35 20.4569 34.9335 20.5881 34.8005C20.7193 34.6778 20.805 34.509 20.8454 34.2942C21.0573 32.6165 21.2944 31.1998 21.5568 30.0438C21.8292 28.8879 22.1823 27.9366 22.6162 27.1898C23.0602 26.4431 23.6454 25.8498 24.3719 25.4099C25.0984 24.9598 26.0216 24.6069 27.1416 24.3512C28.2616 24.0954 29.644 23.8755 31.2886 23.6914C31.5005 23.6709 31.6721 23.5891 31.8032 23.4459C31.9344 23.3026 32 23.1287 32 22.9242C32 22.7298 31.9344 22.561 31.8032 22.4178C31.6721 22.2746 31.5005 22.1928 31.2886 22.1723C29.644 21.9882 28.2616 21.7682 27.1416 21.5125C26.0216 21.2568 25.0984 20.9038 24.3719 20.4537C23.6454 20.0037 23.0602 19.4052 22.6162 18.6585C22.1823 17.9117 21.8292 16.9655 21.5568 15.8198C21.2944 14.6639 21.0573 13.242 20.8454 11.5541C20.805 11.3496 20.7193 11.1859 20.5881 11.0631C20.4569 10.9301 20.2905 10.8637 20.0886 10.8637C19.8969 10.8637 19.7305 10.9301 19.5892 11.0631C19.458 11.1859 19.3773 11.3496 19.347 11.5541C19.1351 13.242 18.893 14.6639 18.6205 15.8198C18.3582 16.9655 18.005 17.9117 17.5611 18.6585C17.1171 19.4052 16.5319 20.0037 15.8054 20.4537C15.0789 20.9038 14.1557 21.2568 13.0357 21.5125C11.9157 21.7682 10.5384 21.9882 8.90378 22.1723C8.6818 22.1928 8.50523 22.2746 8.37405 22.4178C8.24288 22.561 8.1773 22.7298 8.1773 22.9242C8.1773 23.1287 8.24288 23.3026 8.37405 23.4459C8.50523 23.5891 8.6818 23.6709 8.90378 23.6914C10.5384 23.9062 11.9106 24.1517 13.0205 24.4279C14.1405 24.6938 15.0587 25.0468 15.7751 25.4866C16.5016 25.9265 17.0868 26.5147 17.5308 27.2512C17.9748 27.9877 18.3279 28.9237 18.5903 30.0592C18.8627 31.2049 19.115 32.6165 19.347 34.2942C19.3773 34.509 19.458 34.6778 19.5892 34.8005C19.7305 34.9335 19.8969 35 20.0886 35ZM9.82703 18.0294C9.96829 18.0294 10.0843 17.9833 10.1751 17.8913C10.2659 17.7992 10.3214 17.6867 10.3416 17.5537C10.4728 16.5308 10.609 15.7329 10.7503 15.16C10.8915 14.5872 11.1085 14.1575 11.4011 13.8711C11.7038 13.5745 12.1477 13.3494 12.733 13.196C13.3283 13.0323 14.1506 12.8482 15.2 12.6436C15.5027 12.5822 15.6541 12.4083 15.6541 12.1219C15.6541 11.9787 15.6086 11.861 15.5178 11.769C15.4371 11.6769 15.3312 11.6257 15.2 11.6155C14.1506 11.4621 13.3283 11.3138 12.733 11.1705C12.1377 11.0273 11.6886 10.8074 11.3859 10.5107C11.0933 10.2039 10.8764 9.75376 10.7351 9.16046C10.604 8.56715 10.4728 7.75391 10.3416 6.72074C10.3013 6.39339 10.1297 6.22972 9.82703 6.22972C9.52432 6.22972 9.35279 6.39851 9.31243 6.73608C9.19135 7.75902 9.06018 8.55692 8.91892 9.12977C8.77766 9.69239 8.55568 10.1169 8.25297 10.4033C7.95027 10.6898 7.50126 10.9148 6.90595 11.0785C6.31063 11.2319 5.49333 11.4109 4.45405 11.6155C4.15135 11.6667 4 11.8355 4 12.1219C4 12.4185 4.17153 12.5924 4.51459 12.6436C5.54378 12.8175 6.35099 12.9811 6.93622 13.1346C7.53153 13.288 7.9755 13.5131 8.26811 13.8097C8.57081 14.0962 8.78775 14.5309 8.91892 15.114C9.06018 15.6971 9.19135 16.5001 9.31243 17.523C9.35279 17.8606 9.52432 18.0294 9.82703 18.0294ZM17.1524 7.4726C17.3341 7.4726 17.445 7.37031 17.4854 7.16572C17.5964 6.54172 17.6973 6.05071 17.7881 5.69268C17.8789 5.33465 18.0101 5.06357 18.1816 4.87944C18.3632 4.68508 18.6357 4.53164 18.9989 4.41911C19.3622 4.30659 19.8717 4.19407 20.5276 4.08154C20.7294 4.04063 20.8303 3.92299 20.8303 3.72863C20.8303 3.5445 20.7294 3.43197 20.5276 3.39106C19.8717 3.2683 19.3622 3.15578 18.9989 3.05349C18.6357 2.94096 18.3632 2.79263 18.1816 2.60851C18.0101 2.41415 17.8789 2.13795 17.7881 1.77992C17.6973 1.42189 17.5964 0.930878 17.4854 0.306883C17.445 0.102294 17.3341 0 17.1524 0C16.9607 0 16.8497 0.102294 16.8195 0.306883C16.6984 0.930878 16.5924 1.42189 16.5016 1.77992C16.4209 2.13795 16.2897 2.41415 16.1081 2.60851C15.9366 2.79263 15.6692 2.94096 15.3059 3.05349C14.9427 3.15578 14.4332 3.2683 13.7773 3.39106C13.5755 3.43197 13.4746 3.5445 13.4746 3.72863C13.4746 3.92299 13.5755 4.04063 13.7773 4.08154C14.4332 4.19407 14.9427 4.30659 15.3059 4.41911C15.6692 4.53164 15.9366 4.68508 16.1081 4.87944C16.2897 5.06357 16.4209 5.33465 16.5016 5.69268C16.5924 6.05071 16.6984 6.54172 16.8195 7.16572C16.8497 7.37031 16.9607 7.4726 17.1524 7.4726Z" fill="white"/>
</svg>
