<svg width="128" height="24" viewBox="0 0 128 24" fill="none" xmlns="http://www.w3.org/2000/svg">
<g clip-path="url(#clip0_1357_183)">
<path d="M51.7993 0H44.0015V2.00094H51.7993V24H53.8003V2.00094H61.601V0H53.8003H51.7993Z" fill="white"/>
<path d="M82.0001 11.0009H68.3998V0H66.4016V11.0009V12.9991V24H68.3998V12.9991H82.0001V24H84.0011V12.9991V11.0009V0H82.0001V11.0009Z" fill="white"/>
<path d="M88.8018 0V2.00094V11.0009V12.9991V21.9991V24H90.7999H103.201V21.9991H90.7999V12.9991H103.201V11.0009H90.7999V2.00094H103.201V0H90.7999H88.8018Z" fill="white"/>
<path d="M24.7991 0V2.00094V11.0009V12.9991V21.9991V24H26.8H39.201V21.9991H26.8V12.9991H39.201V11.0009H26.8V2.00094H39.201V0H26.8H24.7991Z" fill="white"/>
<path d="M8.86467 0L0 24H2.27191L6.33594 12.9991H13.6653L17.7293 24H20.0012L11.1366 0H8.86467ZM7.07536 11.0009L10.002 3.07902L12.9287 11.0009H7.07536Z" fill="white"/>
<path d="M121.294 13.16L121.088 12.827C123.71 11.9606 125.601 9.49117 125.601 6.58148C125.601 2.94649 122.655 0.00292969 119.022 0.00292969H108.001V24.0029H110.002V13.1629H116.2H119.022L125.728 24.0029H128L121.294 13.1629V13.16ZM119.022 11.1591H110.002V2.00105H119.022C121.551 2.00105 123.603 4.05279 123.603 6.58148C123.603 9.11017 121.551 11.1619 119.022 11.1619V11.1591Z" fill="white"/>
</g>
<defs>
<clipPath id="clip0_1357_183">
<rect width="128" height="24" fill="white"/>
</clipPath>
</defs>
</svg>
