<svg width="1920" height="1080" viewBox="0 0 1920 1080" fill="none" xmlns="http://www.w3.org/2000/svg">
<path d="M1122.97 524.603C1122.97 517.653 1117.36 512.023 1110.45 512.023H1085.78V537.193H1110.45C1117.37 537.193 1122.97 531.563 1122.97 524.613V524.603Z" fill="black"/>
<path d="M804.34 536.739H820.34L812.34 514.969L804.34 536.739Z" fill="black"/>
<path d="M0 0V1080H1920V0H0ZM833.48 572.45L822.37 542.24H802.33L791.22 572.45H785L809.24 506.52H815.46L839.7 572.45H833.48ZM892.19 512.01H858.29V536.73H892.19V542.23H858.29V566.95H892.19V572.44H852.81V506.51H892.19V512V512.01ZM953.44 512.01H932.12V572.45H926.64V512.01H905.32V506.52H953.44V512.01ZM1014.69 536.73V572.44H1009.22V542.23H972.03V572.44H966.57V506.51H972.03V536.72H1009.22V506.51H1014.69V536.72V536.73ZM1067.19 512.01H1033.28V536.73H1067.19V542.23H1033.28V566.95H1067.19V572.44H1027.81V506.51H1067.19V512V512.01ZM1128.78 572.44L1110.45 542.66H1085.78V572.44H1080.32V506.52H1110.45C1120.38 506.52 1128.44 514.61 1128.44 524.59C1128.44 532.59 1123.26 539.37 1116.1 541.75L1116.66 542.67L1135 572.44H1128.78Z" fill="black"/>
</svg>
